<svg width="164" height="194" viewBox="0 0 164 194" fill="none" xmlns="http://www.w3.org/2000/svg">
<g filter="url(#filter0_d)">
<path d="M145.25 83.627C153.396 83.627 160 77.0232 160 68.877C160 60.7308 153.396 54.127 145.25 54.127C137.104 54.127 130.5 60.7308 130.5 68.877C130.5 77.0232 137.104 83.627 145.25 83.627Z" fill="white"/>
<path d="M93.1131 139.544L86.0391 157.419L63.2151 172.336C61.0471 173.568 59.5811 175.895 59.5811 178.566C59.5811 182.524 62.7891 185.733 66.7481 185.733C68.2831 185.733 69.7031 185.246 70.8691 184.423C74.6301 182.052 93.2201 170.339 96.3641 168.543C99.8641 166.543 100.489 163.418 100.489 163.418L105.364 147.418C105.364 147.418 105.364 147.418 99.6141 144.793C93.8641 142.168 93.1131 139.544 93.1131 139.544Z" fill="white"/>
<path d="M143.321 141.462C143.321 141.462 142.163 137.628 138.742 136.295C135.321 134.962 120.655 128.545 120.655 128.545L136.071 102.961C136.071 102.961 139.905 93.961 135.738 89.544C131.571 85.127 121.988 79.794 121.988 79.794H114.467L130.266 52.993C133.62 47.307 131.709 39.912 126.024 36.561L76.6331 7.447C70.9471 4.095 63.5541 6.005 60.2021 11.691L13.1441 91.519C9.79306 97.204 11.7021 104.599 17.3881 107.951L66.7781 137.064C72.4641 140.416 79.8591 138.505 83.2101 132.822L106.144 93.919H114.24L99.4901 120.128C99.4901 120.128 94.3561 129.342 99.1561 134.378C103.365 138.794 111.823 141.294 111.823 141.294L129.073 147.795L134.174 179.086L134.183 179.085C134.732 182.498 137.682 185.108 141.25 185.108C145.208 185.108 148.416 181.899 148.416 177.941C148.416 177.752 148.402 177.566 148.388 177.381L148.416 177.377L143.321 141.462ZM21.9581 100.198C20.5571 99.372 20.0711 97.49 20.8971 96.09L67.9561 16.261C68.7821 14.86 70.6631 14.373 72.0631 15.199L83.5841 21.991L33.4801 106.989L21.9581 100.198ZM75.4561 128.252C74.6301 129.652 72.7491 130.139 71.3491 129.313L41.2331 111.559L91.3401 26.563L121.453 44.316C122.855 45.142 123.34 47.023 122.515 48.423L104.022 79.795H95.2391L75.3231 94.222C74.8811 94.474 74.4701 94.775 74.0931 95.113L74.0621 95.135L74.0641 95.138C72.6191 96.45 71.7061 98.336 71.7061 100.442C71.7061 104.4 74.9141 107.609 78.8731 107.609C80.4211 107.609 81.8511 107.113 83.0221 106.278L83.0241 106.281L83.0951 106.223C83.2771 106.09 83.4511 105.95 83.6191 105.8L93.2791 98.016L75.4561 128.252Z" fill="white"/>
<path d="M53.2189 5.94302L6.16091 85.772C2.80991 91.457 4.71891 98.852 10.4049 102.204L59.7949 131.317C65.4809 134.669 72.8759 132.758 76.2269 127.075L123.284 47.246C126.638 41.56 124.727 34.165 119.042 30.814L69.6499 1.70002C63.9649 -1.65198 56.5709 0.258023 53.2189 5.94302ZM13.9139 90.343L60.9729 10.514C61.7989 9.11302 63.6799 8.62602 65.0799 9.45202L76.6009 16.244L26.4959 101.242L14.9739 94.451C13.5739 93.625 13.0879 91.743 13.9139 90.343ZM115.531 42.676L68.4719 122.505C67.6459 123.905 65.7649 124.392 64.3649 123.566L34.2489 105.812L84.3549 20.816L114.468 38.569C115.871 39.394 116.355 41.275 115.531 42.676Z" fill="#F0C42E"/>
<path d="M139.25 77.833C147.396 77.833 154 71.2292 154 63.083C154 54.9368 147.396 48.333 139.25 48.333C131.104 48.333 124.5 54.9368 124.5 63.083C124.5 71.2292 131.104 77.833 139.25 77.833Z" fill="#3A3A3A"/>
<path d="M85.875 133.75L78.801 151.625L55.976 166.542C53.808 167.774 52.342 170.101 52.342 172.772C52.342 176.73 55.55 179.939 59.509 179.939C61.044 179.939 62.464 179.452 63.63 178.629C67.391 176.258 85.981 164.545 89.125 162.749C92.625 160.749 93.25 157.624 93.25 157.624L98.125 141.624C98.125 141.624 98.125 141.624 92.375 138.999C86.625 136.374 85.875 133.75 85.875 133.75Z" fill="#3A3A3A"/>
<path d="M136.083 135.668C136.083 135.668 134.925 131.834 131.504 130.501C128.083 129.168 113.417 122.751 113.417 122.751L128.833 97.167C128.833 97.167 132.667 88.167 128.5 83.75C124.333 79.333 114.75 74 114.75 74H88L68.085 88.427C67.643 88.68 67.232 88.98 66.855 89.318L66.824 89.34L66.826 89.343C65.381 90.654 64.468 92.541 64.468 94.646C64.468 98.604 67.676 101.813 71.635 101.813C73.183 101.813 74.613 101.317 75.784 100.482L75.786 100.485L75.857 100.427C76.039 100.294 76.214 100.154 76.382 100.004L91.125 88.123H107L92.25 114.332C92.25 114.332 87.116 123.546 91.916 128.582C96.125 132.998 104.583 135.498 104.583 135.498L121.833 141.999L126.934 173.29L126.943 173.289C127.492 176.702 130.442 179.312 134.01 179.312C137.968 179.312 141.176 176.103 141.176 172.145C141.176 171.956 141.162 171.77 141.148 171.585L141.176 171.581L136.083 135.668Z" fill="#3A3A3A"/>
</g>
<defs>
<filter id="filter0_d" x="0" y="0" width="164" height="196" filterUnits="userSpaceOnUse" color-interpolation-filters="sRGB">
<feFlood flood-opacity="0" result="BackgroundImageFix"/>
<feColorMatrix in="SourceAlpha" type="matrix" values="0 0 0 0 0 0 0 0 0 0 0 0 0 0 0 0 0 0 127 0"/>
<feOffset dy="4"/>
<feGaussianBlur stdDeviation="2"/>
<feColorMatrix type="matrix" values="0 0 0 0 0 0 0 0 0 0 0 0 0 0 0 0 0 0 0.25 0"/>
<feBlend mode="normal" in2="BackgroundImageFix" result="effect1_dropShadow"/>
<feBlend mode="normal" in="SourceGraphic" in2="effect1_dropShadow" result="shape"/>
</filter>
</defs>
</svg>
